name C:\Users\u0150099\Documents\master_thesis\3dpredictsim\Results\debug\Fal_s1_mtj_sc_cspx10_oy_ATx70_MTPm_k1_d01_MTJm_nl_MG_exp_table_d01_PF_Gefen2002_ls146_PIM2_w1e+05_w1e+05_ig21.mot
datacolumns 128
datarows 4
range 0.50619640 0.53656818
endheader
time	pelvis_tilt	pelvis_list	pelvis_rotation	pelvis_tx	pelvis_ty	pelvis_tz	hip_flexion_l	hip_adduction_l	hip_rotation_l	hip_flexion_r	hip_adduction_r	hip_rotation_r	knee_angle_l	knee_angle_r	ankle_angle_l	ankle_angle_r	subtalar_angle_l	subtalar_angle_r	mtj_angle_l	mtj_angle_r	mtp_angle_l	mtp_angle_r	lumbar_extension	lumbar_bending	lumbar_rotation	arm_flex_l	arm_add_l	arm_rot_l	arm_flex_r	arm_add_r	arm_rot_r	elbow_flex_l	elbow_flex_r	pro_sup_l	pro_sup_r	glut_med1_l/activation	glut_med2_l/activation	glut_med3_l/activation	glut_min1_l/activation	glut_min2_l/activation	glut_min3_l/activation	semimem_l/activation	semiten_l/activation	bifemlh_l/activation	bifemsh_l/activation	sar_l/activation	add_long_l/activation	add_brev_l/activation	add_mag1_l/activation	add_mag2_l/activation	add_mag3_l/activation	tfl_l/activation	pect_l/activation	grac_l/activation	glut_max1_l/activation	glut_max2_l/activation	glut_max3_l/activation	iliacus_l/activation	psoas_l/activation	quad_fem_l/activation	gem_l/activation	peri_l/activation	rect_fem_l/activation	vas_med_l/activation	vas_int_l/activation	vas_lat_l/activation	med_gas_l/activation	lat_gas_l/activation	soleus_l/activation	tib_post_l/activation	flex_dig_l/activation	flex_hal_l/activation	tib_ant_l/activation	per_brev_l/activation	per_long_l/activation	per_tert_l/activation	ext_dig_l/activation	ext_hal_l/activation	ercspn_l/activation	intobl_l/activation	extobl_l/activation	glut_med1_r/activation	glut_med2_r/activation	glut_med3_r/activation	glut_min1_r/activation	glut_min2_r/activation	glut_min3_r/activation	semimem_r/activation	semiten_r/activation	bifemlh_r/activation	bifemsh_r/activation	sar_r/activation	add_long_r/activation	add_brev_r/activation	add_mag1_r/activation	add_mag2_r/activation	add_mag3_r/activation	tfl_r/activation	pect_r/activation	grac_r/activation	glut_max1_r/activation	glut_max2_r/activation	glut_max3_r/activation	iliacus_r/activation	psoas_r/activation	quad_fem_r/activation	gem_r/activation	peri_r/activation	rect_fem_r/activation	vas_med_r/activation	vas_int_r/activation	vas_lat_r/activation	med_gas_r/activation	lat_gas_r/activation	soleus_r/activation	tib_post_r/activation	flex_dig_r/activation	flex_hal_r/activation	tib_ant_r/activation	per_brev_r/activation	per_long_r/activation	per_tert_r/activation	ext_dig_r/activation	ext_hal_r/activation	ercspn_r/activation	intobl_r/activation	extobl_r/activation	
          0.50619640	         -2.93013454	          0.95853729	         -3.98179247	          0.67324121	          0.91565619	          0.00395745	         29.12336660	          2.43992123	         -4.72730853	        -11.54468469	          2.77385673	          2.10915420	        -19.93966031	        -20.15157513	          4.80627213	         -4.24736868	         -2.44190139	         -7.52734743	        -10.75187219	         -3.43346663	         21.91695955	         38.96417392	         -1.59175375	          0.41804899	          0.87509837	         -7.17144967	        -13.51561993	          5.04589947	          3.43826614	        -13.85511653	         19.13908277	         27.58249462	         28.86723420	         86.51662706	         86.51662706	          0.05148886	          0.05048970	          0.05000077	          0.05837690	          0.05038940	          0.05000179	          0.22181605	          0.07982037	          0.38558068	          0.07943253	          0.05708158	          0.10129832	          0.13895455	          0.14221017	          0.13439862	          0.15231148	          0.05000402	          0.05006967	          0.07982015	          0.05244468	          0.09612695	          0.14942696	          0.07072820	          0.06652338	          0.11511861	          0.05000100	          0.05000072	          0.05000016	          0.05000026	          0.05000019	          0.05000015	          0.06829672	          0.06829662	          0.05410732	          0.30876669	          0.05497514	          0.07981781	          0.29428194	          0.25722010	          0.36509429	          0.25922194	          0.71083867	          0.06452579	          0.05000002	          0.11890545	          0.15883139	          0.26543758	          0.05000025	          0.05000010	          0.44966431	          0.10266907	          0.05000051	          0.05000134	          0.05000013	          0.05000013	          0.05000009	          0.05000052	          0.16590251	          0.05000356	          0.05000176	          0.05004017	          0.05594515	          0.41560731	          0.05000105	          0.05000032	          0.05000279	          0.05000176	          0.05000186	          0.41793532	          0.63974831	          0.05000012	          0.05000033	          0.05000012	          0.56834372	          0.23584936	          0.23695206	          0.20206869	          0.29622423	          0.45117417	          0.13763972	          0.71737043	          0.38224175	          0.62659379	          0.05000001	          0.18160276	          0.58731639	          0.05000012	          0.05000002	          0.06278530	          0.05000002	          0.05000044	          0.05000017	
          0.51632033	         -2.92891850	          1.01350856	         -4.22834653	          0.68921870	          0.91401124	          0.00375512	         28.97618545	          2.70665450	         -4.63420594	        -12.24264244	          2.46536782	          1.96175406	        -19.67294704	        -20.30017970	          4.36064445	         -5.21415791	         -2.80403729	         -7.13392359	        -10.62876745	         -4.70156453	         20.84285103	         41.76152522	         -1.43701689	          0.25353888	          0.96929282	         -7.86120503	        -13.47836086	          4.58292678	          3.31966643	        -13.81422508	         19.33528361	         27.00199113	         29.53127971	         86.51662706	         86.51662706	          0.06829646	          0.05000038	          0.05002238	          0.05000035	          0.05000042	          0.05000936	          0.18979270	          0.06829670	          0.37972767	          0.06828509	          0.05013515	          0.09293992	          0.13902375	          0.14079321	          0.16439599	          0.18694608	          0.05000057	          0.05832473	          0.06829684	          0.05017421	          0.13870588	          0.19265638	          0.06051712	          0.05691935	          0.12781935	          0.05000109	          0.05000084	          0.05000009	          0.05000215	          0.05000882	          0.05000116	          0.05843662	          0.05843659	          0.05843659	          0.33504524	          0.05843663	          0.06829643	          0.31618825	          0.25161736	          0.39020188	          0.41485761	          0.72644838	          0.05521015	          0.05056965	          0.10174441	          0.13937174	          0.22798678	          0.05000007	          0.05000002	          0.41116525	          0.08784681	          0.05000018	          0.05000108	          0.05000011	          0.05000009	          0.05000028	          0.05843750	          0.18429452	          0.05000031	          0.05000032	          0.05000058	          0.05000033	          0.35560606	          0.06829324	          0.05000025	          0.05000071	          0.05000041	          0.05000032	          0.35759727	          0.70523087	          0.05000003	          0.05000009	          0.05000005	          0.48629126	          0.23972456	          0.24389587	          0.21138329	          0.26624736	          0.42020530	          0.11776842	          0.65424189	          0.32705760	          0.54232219	          0.05000000	          0.15538442	          0.50252440	          0.05000011	          0.05000001	          0.05372166	          0.05000002	          0.05000000	          0.05000005	
          0.52644426	         -2.92423566	          1.06868506	         -4.46247792	          0.70552069	          0.91229791	          0.00352074	         28.80306181	          2.98396232	         -4.51466337	        -12.85071064	          2.13420576	          1.81320930	        -20.03077607	        -20.58806591	          3.77655107	         -6.29938298	         -3.26388438	         -6.63370684	        -10.36196883	         -6.08775115	         19.69302657	         44.77875066	         -1.26264155	          0.08298974	          1.05967355	         -8.57206106	        -13.45591226	          4.30919219	          3.12112243	        -13.76040530	         19.38768828	         26.39328239	         30.20671619	         86.51662706	         86.51662706	          0.05843650	          0.05843608	          0.05000022	          0.05843660	          0.05843653	          0.05000156	          0.16239198	          0.05843663	          0.32490568	          0.05843627	          0.05000024	          0.13137846	          0.23478610	          0.12072344	          0.16126766	          0.18795719	          0.05000019	          0.05045489	          0.05843699	          0.05000075	          0.15063562	          0.21299408	          0.05850537	          0.07392533	          0.26153994	          0.12300576	          0.05843684	          0.05000029	          0.05471555	          0.06592515	          0.06135749	          0.05000002	          0.05000002	          0.05000000	          0.33494616	          0.05000008	          0.05843637	          0.37493258	          0.31816358	          0.35857536	          0.65064632	          0.81648599	          0.05004930	          0.05000002	          0.08705538	          0.11925038	          0.19507191	          0.05000006	          0.05000002	          0.35180457	          0.07516432	          0.05000016	          0.05000241	          0.05000019	          0.05000013	          0.05000016	          0.05000116	          0.16611014	          0.11363677	          0.05000078	          0.05001364	          0.07810434	          0.30426684	          0.05843481	          0.05000022	          0.05000070	          0.05000048	          0.05000052	          0.30597028	          0.63791960	          0.05000003	          0.05000011	          0.05000011	          0.41608449	          0.20511526	          0.20868438	          0.20342504	          0.22780873	          0.35953953	          0.10076597	          0.55978777	          0.27983975	          0.46402623	          0.05000000	          0.13295128	          0.42997398	          0.05000007	          0.05000001	          0.05796862	          0.05000000	          0.05596497	          0.06188842	
          0.53656818	         -2.91581089	          1.13471560	         -4.68558165	          0.72212340	          0.91047623	          0.00325070	         28.58236096	          3.26369080	         -4.36929294	        -13.35614521	          1.77186590	          1.66414564	        -21.02593066	        -21.03398921	          3.23924202	         -7.50883213	         -3.85192043	         -6.04383107	         -9.71912995	         -7.57587855	         18.48051721	         47.97231657	         -1.06908944	         -0.10075373	          1.14579655	         -9.30471428	        -13.44970865	          4.20620868	          2.84340450	        -13.71321507	         19.36379333	         25.77002218	         30.92474014	         86.51662706	         86.51662706	          0.05000001	          0.05000005	          0.09116988	          0.05000005	          0.05000005	          0.05000009	          0.13894714	          0.05000005	          0.27799842	          0.05000002	          0.05895814	          0.11241130	          0.23804154	          0.34668965	          0.25528775	          0.21510816	          0.05843674	          0.05011389	          0.05000047	          0.06985588	          0.17060736	          0.22806056	          0.05005899	          0.06829676	          0.36555199	          0.10524730	          0.05000044	          0.06829675	          0.14828678	          0.15248245	          0.13975123	          0.05843682	          0.05843679	          0.05863493	          0.30725132	          0.06829653	          0.05000004	          0.50719756	          0.27222973	          0.30680715	          0.57010825	          0.81031469	          0.08841660	          0.05000000	          0.07448703	          0.10203398	          0.16690901	          0.05843747	          0.05898052	          0.30101389	          0.06431281	          0.05844374	          0.05000193	          0.05000018	          0.05000178	          0.05000003	          0.05000017	          0.25225917	          0.26035595	          0.12498170	          0.05871922	          0.11323430	          0.26033947	          0.05000091	          0.05000173	          0.05846342	          0.05847406	          0.07461462	          0.26179677	          0.56062226	          0.06829694	          0.09034106	          0.05843682	          0.35601357	          0.17550241	          0.17855625	          0.17405621	          0.19491955	          0.30763215	          0.08621819	          0.47897013	          0.23943877	          0.39703390	          0.09259763	          0.11375685	          0.36789781	          0.05000002	          0.05000002	          0.05000027	          0.05000003	          0.06829673	          0.05843674	
